<svg xmlns="http://www.w3.org/2000/svg" fill="#fff" viewBox="0 0 290.062 290.062" height="48" width="48">
    <path id="circle7936" d="M23.865,0c-1.827-0.015-3.517,0.967-4.408,2.562c-25.898,44.856-25.898,100.144,0,145 c1.345,2.412,4.391,3.276,6.803,1.931c2.412-1.345,3.276-4.391,1.931-6.803c-0.024-0.043-0.048-0.085-0.074-0.128 c-24.119-41.776-24.119-93.224,0-135c1.415-2.372,0.64-5.441-1.732-6.856C25.622,0.251,24.753,0.008,23.865,0z M266.046,0.004 c-2.76,0.107-4.91,2.43-4.804,5.19c0.032,0.836,0.274,1.65,0.702,2.369c24.119,41.776,24.119,93.224,0,135 c-1.416,2.371-0.642,5.441,1.729,6.857s5.441,0.642,6.857-1.729c0.025-0.042,0.05-0.085,0.074-0.128 c25.898-44.856,25.898-100.144,0-145C269.688,0.92,267.926-0.068,266.046,0.004z M81.097,25c-1.827-0.015-3.517,0.967-4.408,2.562 c-16.966,29.386-16.966,65.614,0,95c1.345,2.412,4.391,3.276,6.803,1.931c2.412-1.345,3.276-4.391,1.931-6.803 c-0.024-0.043-0.048-0.085-0.074-0.128c-15.188-26.306-15.188-58.694,0-85c1.415-2.372,0.64-5.441-1.732-6.856 C82.855,25.251,81.985,25.008,81.097,25z M208.814,25.004c-2.76,0.107-4.91,2.43-4.804,5.19c0.032,0.836,0.274,1.65,0.702,2.369 c15.188,26.306,15.188,58.694,0,85c-1.416,2.371-0.642,5.441,1.729,6.857c2.371,1.416,5.441,0.642,6.857-1.729 c0.025-0.042,0.05-0.085,0.074-0.128c16.966-29.386,16.966-65.614,0-95C212.455,25.92,210.694,24.932,208.814,25.004z M145.031,40.063c-19.271,0-35,15.729-35,35c0,17.081,12.36,31.369,28.588,34.398L90.212,283.725 c-0.738,2.661,0.821,5.417,3.483,6.155c1.622,0.45,3.362,0.053,4.629-1.055l46.707-40.869l46.707,40.869 c2.078,1.818,5.238,1.608,7.056-0.471c1.108-1.267,1.505-3.007,1.055-4.629l-48.406-174.264 c16.228-3.029,28.588-17.318,28.588-34.398C180.031,55.792,164.301,40.063,145.031,40.063z M145.031,50.063 c13.866,0,25,11.134,25,25s-11.134,25-25,25s-25-11.134-25-25S131.164,50.063,145.031,50.063z M145.031,57.563 c-1.381-0.02-2.516,1.084-2.535,2.465c-0.02,1.381,1.084,2.516,2.465,2.535c0.024,0,0.047,0,0.071,0c6.933,0,12.5,5.567,12.5,12.5 c-0.02,1.381,1.084,2.516,2.465,2.535c1.381,0.02,2.516-1.084,2.535-2.465c0-0.024,0-0.047,0-0.071 C162.531,65.427,154.666,57.563,145.031,57.563z M145.031,123.746l24.787,89.232l-24.787,21.689l-24.787-21.689L145.031,123.746z M117.275,223.668l20.162,17.645l-33.111,28.973L117.275,223.668z M172.787,223.668l12.949,46.617l-33.111-28.973L172.787,223.668z "></path>
</svg>